<?xml version="1.0" encoding="UTF-8"?> <svg xmlns="http://www.w3.org/2000/svg" xmlns:xlink="http://www.w3.org/1999/xlink" version="1.1" id="Capa_1" x="0px" y="0px" viewBox="0 0 512 512" style="enable-background:new 0 0 512 512;" xml:space="preserve"> <style type="text/css"> .st0{fill:none;} .st1{fill:#E6E6E6;} .st2{fill:#DEDEDE;} .st3{fill:#A2DAEB;} .st4{fill:#4398D1;} .st5{fill:#F7F7F7;} </style> <rect class="st0" width="512" height="512"></rect> <path class="st1" d="M223.8,87.8L223.8,87.8c-9.7-4.1-20.1-6.3-30.6-6.3l0,0c-42.9,0-77.7,34.8-77.7,77.7l0,0 c0,36.7,10.3,72.6,29.7,103.7l3.7,6l17.3,127c1.6,11.6,11.5,20.2,23.1,20.2l0,0c11.4,0,21.1-8.2,23-19.5l20.2-121.3 c1.9-11.4,11.8-19.8,23.4-19.8l0,0c11.6,0,21.5,8.4,23.4,19.8l20.2,121.3c1.9,11.3,11.6,19.5,23,19.5l0,0c11.7,0,21.5-8.6,23.1-20.2 l17.3-127l3.7-6c19.4-31.1,29.7-67,29.7-103.7l0,0c0-42.9-34.8-77.7-77.7-77.7l0,0l0,0c-10.5,0-20.9,2.1-30.6,6.3l0,0 C267.6,96.6,244.4,96.6,223.8,87.8z"></path> <path class="st2" d="M356.4,91.3c-42.6,101.5-137.9,160.2-205.6,190.5l15.6,114.1c1.7,12.8,13.4,21.7,26.2,20 c10.2-1.4,18.3-9.2,19.9-19.4l20.2-121.3c2.1-12.9,14.4-21.6,27.3-19.5c10,1.7,17.8,9.5,19.5,19.5l20.2,121.3 c2.1,12.7,14.1,21.3,26.8,19.3c10.1-1.7,18-9.8,19.4-19.9l17.3-127l3.7-6c19.4-31.1,29.7-67,29.7-103.7l0,0 C396.5,131,381.1,104.9,356.4,91.3z"></path> <rect x="321.3" y="362.5" transform="matrix(0.7071 -0.7071 0.7071 0.7071 -158.6611 355.4079)" class="st3" width="56.8" height="13.4"></rect> <polygon class="st4" points="450,248.8 356.4,342.5 376.4,362.5 450,289 "></polygon> <ellipse class="st3" cx="296.1" cy="409.4" rx="46.8" ry="33.5"></ellipse> <g> <path class="st5" d="M155.6,168.5h-13.4c0-36.1,25.4-50.7,38.8-53.4l2.6,13.1l-1.3-6.6l1.3,6.5 C182.6,128.5,155.6,134.6,155.6,168.5z"></path> <rect x="195.8" y="115" class="st5" width="13.4" height="13.4"></rect> </g> <g> <rect x="96.6" y="133.1" transform="matrix(0.7071 -0.7071 0.7071 0.7071 -73.6606 126.2001)" class="st3" width="37.8" height="37.8"></rect> <path class="st3" d="M180.7,255.5c-15.1,0-27.2-12.2-27.2-27.3c0-4.2,1-8.4,2.9-12.2l4.6-9.2l-36.7-36.7l9.5-9.5l36.7,36.7 c4.1,4.1,5.1,10.3,2.5,15.4l-4.6,9.2c-3.4,6.9-0.6,15.2,6.2,18.6c3.5,1.8,7.7,1.9,11.3,0.5l20.9-8.4l5,12.4l-20.9,8.3 C187.6,254.8,184.1,255.5,180.7,255.5z"></path> </g> <polygon class="st4" points="62,54.8 122.2,118.6 82.1,158.7 62,141.8 "></polygon> <path d="M77.7,163.8c2.7,2.2,6.6,2.1,9-0.4l2-2l22,22c2.6,2.6,6.9,2.6,9.5,0l8.7-8.7l32,32l-4.6,9.2c-6.7,13.5-1.3,29.8,12.2,36.5 c7,3.5,15.1,3.8,22.3,0.9l20.9-8.3l-5-12.4l-20.9,8.3c-7.1,2.8-15.2-0.7-18-7.8c-1.5-3.7-1.3-7.8,0.5-11.3l4.6-9.2 c2.6-5.2,1.6-11.4-2.5-15.4l-32-32l8.7-8.7c2.6-2.6,2.6-6.9,0-9.5l-22-22l2-2c2.6-2.6,2.6-6.7,0.1-9.3L66.8,50.2 c-2.5-2.7-6.8-2.8-9.5-0.3c-1.3,1.3-2.1,3-2.1,4.9v87c0,2,0.9,3.8,2.4,5.1L77.7,163.8z M132.8,152l-17.3,17.3L98.2,152l17.3-17.3 L132.8,152z M68.7,71.6l44.2,46.8l-2.1,2.1L84,147.3l-2.3,2.3l-13-11V71.6z"></path> <path d="M452.6,242.6c-2.5-1-5.4-0.5-7.3,1.5l-93.7,93.7c-2.6,2.6-2.6,6.9,0,9.5l5.3,5.3l-26.3,26.3c-10.4-6.4-22.4-9.7-34.5-9.5 c-29.5,0-53.5,18-53.5,40.1c0,22.1,24,40.1,53.5,40.1c29.5,0,53.5-18,53.5-40.1c-0.1-8.1-3.2-15.9-8.8-21.9l25.5-25.5l5.3,5.3 c2.6,2.6,6.9,2.6,9.5,0l73.6-73.6c1.3-1.3,2-3,2-4.7v-40.1C456.7,246.1,455.1,243.7,452.6,242.6z M296.1,436.1 c-21.8,0-40.1-12.3-40.1-26.8c0-14.5,18.4-26.8,40.1-26.8c21.8,0,40.1,12.3,40.1,26.8C336.3,423.9,317.9,436.1,296.1,436.1z M443.3,286.2l-66.9,66.9l-10.6-10.6l77.5-77.5V286.2z"></path> <path d="M256,262.2c8.3,0,15.4,6,16.8,14.2l13.4,80.6l13.2-2.2L286,274.2c-2.8-16.6-18.4-27.7-35-25c-12.8,2.1-22.8,12.2-25,25 l-20.2,121.3c-1.5,9.1-10.1,15.2-19.2,13.7c-7.2-1.2-12.8-6.9-13.8-14.2l-17.3-127c-0.1-1-0.4-1.9-1-2.7l-3.7-6 c-11.3-18.1-19.5-38-24.2-58.9l-13.1,2.9c5,22.3,13.7,43.7,25.9,63.1l3,4.7l17.1,125.6c2.2,16.4,17.4,27.9,33.8,25.7 c13-1.8,23.4-11.8,25.6-24.8l20.2-121.3C240.6,268.2,247.7,262.2,256,262.2z"></path> <path d="M193.2,88.2c9.6,0,19.1,1.9,28,5.7c22.2,9.5,47.4,9.5,69.6,0c36.1-15.4,77.8,1.3,93.3,37.3c3.8,8.8,5.7,18.4,5.7,28 c0,35.4-9.9,70.1-28.7,100.1l-3.7,6c-0.5,0.8-0.8,1.7-1,2.7l-5.5,40.1l13.3,1.8l5.3-38.7l3-4.7c20.1-32.2,30.8-69.3,30.7-107.2 c0-46.6-37.8-84.4-84.4-84.4c-11.4,0-22.7,2.3-33.2,6.8c-18.9,8-40.2,8-59.1,0c-33.1-14.2-71.7-5.8-95.8,21l9.9,9 C154,96.8,173.1,88.3,193.2,88.2z"></path> </svg> 