<svg xmlns="http://www.w3.org/2000/svg" viewBox="0 0 148.52 22.37"><defs><style>.cls-1{fill:#fff;}</style></defs><g id="katman_2" data-name="katman 2"><g id="katman_1-2" data-name="katman 1"><g id="surface1"><path class="cls-1" d="M35.49.07a1.74,1.74,0,0,0-1.05.57c-.21.36-7,20.34-7,20.71s0,.36.17.53c.37.31.79.39,2.13.39a4.58,4.58,0,0,0,1.51-.11c.53-.21.59-.34,1.29-2.49l.63-2h7.37l.63,2c.56,1.74.66,2,.85,2.17.36.36.75.43,2.17.43s1.69-.05,2-.39.21-.23.18-.55S39.57,1,39.39.64A1.82,1.82,0,0,0,38.27.07,16.13,16.13,0,0,0,35.49.07Zm1.8,7.16c.18.65.67,2.29,1.08,3.64s.75,2.51.77,2.56-.11.12-2.3.12-2.32,0-2.29-.12c.6-1.89,1.85-6,2.14-7,.07-.26.16-.46.2-.45A7.46,7.46,0,0,1,37.29,7.23Z"/><path class="cls-1" d="M44.63.11c-.39.2-.47.5-.5,1.84s0,1.79.3,2.09l.18.21,2.68,0,2.67,0v8.59l0,8.59.14.18a1.64,1.64,0,0,0,.81.54,12.7,12.7,0,0,0,2.89,0,1.33,1.33,0,0,0,.85-.61c.1-.2.11-.94.11-8.76V4.28h5.28l.21-.21c.32-.32.36-.58.34-2.05,0-1.13,0-1.32-.15-1.54C60.21,0,60.84,0,52.37,0,45.47,0,44.83,0,44.63.11Z"/><path class="cls-1" d="M66.35.09a1.35,1.35,0,0,0-1,.7c-.16.35-6.9,20.21-6.95,20.48-.16.73.78,1.09,2.68,1,1.63-.06,1.59,0,2.42-2.59l.65-2h7.35l.64,2c.72,2.18.75,2.24,1.33,2.46a3.56,3.56,0,0,0,1.37.17c1.56.05,2.23-.11,2.46-.57.1-.19.1-.26,0-.6s-1.62-4.9-3.49-10.42C71.14,2.84,70.36.63,70.23.5a1.5,1.5,0,0,0-.52-.32A4.41,4.41,0,0,0,68.06,0,7.64,7.64,0,0,0,66.35.09Zm1.87,7c.17.6.67,2.3,1.11,3.75l.8,2.66-2.28,0c-1.26,0-2.3,0-2.32,0s.32-1.15.74-2.51c.93-3,1.47-4.81,1.47-4.92A.08.08,0,0,1,67.82,6,3.54,3.54,0,0,1,68.22,7.11Z"/><path class="cls-1" d="M80.25.07A1.34,1.34,0,0,0,79.19.7L79,1V21.32l.15.28c.19.37.53.55,1.25.65a10.5,10.5,0,0,0,2.49-.07,1.65,1.65,0,0,0,.78-.53c.13-.18.13-.23.15-4.88A38.86,38.86,0,0,1,84,12.1s1.29,2,2.76,4.39C90.32,22.38,90,21.81,90.36,22a4.85,4.85,0,0,0,2.28.3,6.26,6.26,0,0,0,2.25-.24c.3-.14.38-.29.32-.59,0-.1-1.61-2.6-3.53-5.56L88.2,10.52l.46-.7,3.09-4.77C94.2,1.27,94.38,1,94.38.71s0-.3-.25-.43A5.32,5.32,0,0,0,91.69,0c-1.19,0-1.55.1-2,.38a41.88,41.88,0,0,0-3,4.67C85.22,7.55,84,9.57,83.92,9.55s0-2,0-4.29c0-4.14,0-4.27-.12-4.52A1.46,1.46,0,0,0,82.6.07,11.54,11.54,0,0,0,80.25.07Z"/><path class="cls-1" d="M97.64.06a.85.85,0,0,0-.59.53C97,.84,97,1.92,97,11.26l0,10.4.14.18a2.15,2.15,0,0,0,.35.31c.21.12.33.12,6.24.12a58.48,58.48,0,0,0,6.24-.09.69.69,0,0,0,.35-.38c.14-.27.15-.4.17-1.49,0-1.39,0-1.78-.38-2.06l-.2-.16h-8.18V13H109l.21-.22c.32-.31.37-.58.34-2.05,0-1.15,0-1.3-.15-1.5-.27-.46-.15-.45-4.14-.45h-3.58V4.34h4c2.94,0,4.07,0,4.19-.07.42-.2.58-1,.52-2.48,0-1-.11-1.32-.37-1.58L109.9,0h-6C100.53,0,97.73,0,97.64.06Z"/><path class="cls-1" d="M9.36,4.81,6.83,9.54,9.8,16l3,6.42h5.51c4.65,0,5.51,0,5.49-.09S12,.16,11.93.11,10.75,2.2,9.36,4.81Z"/><path class="cls-1" d="M113.46.13A1.67,1.67,0,0,0,112.4.7l-.14.21V21.52l.14.22c.29.43,1,.63,2.14.63s1.78-.17,2.12-.58l.17-.2V15.11c0-3.57,0-6.48,0-6.48s1.91,2.87,4.17,6.37,4.25,6.5,4.39,6.65c.52.59,1.16.76,2.69.7a8.62,8.62,0,0,0,1.22-.1,1.67,1.67,0,0,0,.78-.54l.13-.18V.9l-.13-.18a1.58,1.58,0,0,0-.78-.53,8.16,8.16,0,0,0-1.06-.11C127,0,126.15.22,125.84.66l-.15.2,0,6.43,0,6.41-.52-.79L121,6.55C118.74,3,117.34.88,117.16.7c-.5-.5-.84-.59-2.2-.61A10,10,0,0,0,113.46.13Z"/><path class="cls-1" d="M132.52.17c-.41.21-.48.45-.5,1.91s0,1.73.34,2.05l.21.21h5.28v8.54c0,7.75,0,8.56.1,8.76.23.49.73.67,2,.71,1.47.06,2.28-.15,2.57-.64.12-.2.12-.44.14-8.79l0-8.58H148l.21-.21c.31-.3.37-.7.34-2.14,0-1.07,0-1.22-.16-1.45-.26-.48.42-.45-8-.47C133.2.06,132.73.07,132.52.17Z"/><path class="cls-1" d="M3.05,16.6,0,22.34l5.71,0c3.15,0,5.73,0,5.75,0S6.2,10.86,6.15,10.86,4.73,13.45,3.05,16.6Z"/></g></g></g></svg>