<svg xmlns="http://www.w3.org/2000/svg" viewBox="0 0 1034.69 274.5"><defs><style>.cls-1{fill:#f36b24;}.cls-2{isolation:isolate;font-size:61.16px;font-family:Arial-ItalicMT, Arial;font-style:italic;}.cls-2,.cls-4{fill:#fff;}.cls-3{fill:#f36b25;}</style></defs><g id="katman_2" data-name="katman 2"><g id="katman_1-2" data-name="katman 1"><g id="katman_2-2" data-name="katman 2"><g id="katman_1-2-2" data-name="katman 1-2"><g id="Layer_5" data-name="Layer 5"><path class="cls-1" d="M103.13,19.36l43.46,87.5s16.79-30.42,17.18-47.4c.4-15.81-8.49-42.47-43.85-44C115.18,15.21,107.87,16.59,103.13,19.36Z"/><path class="cls-1" d="M106.88,84.54,85.35,41.09,83,36.94A46.11,46.11,0,0,0,45,17a51,51,0,0,0-7.71.59A43.12,43.12,0,0,0,14.64,28.64a44.17,44.17,0,0,0-10.27,52L5,81.83l45.43,91.45L68,136.1l-7.31-14.62h1.78A44.49,44.49,0,0,0,85.75,115l29,58.27,17.58-37.33ZM60.27,88.69c-19.16,0-28.45-22.12-27.66-28.44C33.4,52.54,36.76,48,44.46,48s10.28,4.35,10.28,4.35l17,34C71.72,86.52,67.77,88.69,60.27,88.69Z"/></g><g id="Layer_4" data-name="Layer 4"><text class="cls-2" transform="translate(354.67 210.25)">Geleceğe gülümse</text></g><g id="Layer_3" data-name="Layer 3"><path class="cls-3" d="M478.24,228.74c59.66,30.82,130,41.09,195.36,25.88,25.88-5.73,50.37-15,75.06-25.88l.4.79a238,238,0,0,1-92.64,40.69c-50,9.88-103.31,2.57-148.55-20.94a180.49,180.49,0,0,1-30.22-19.75l.59-.79Z"/></g><g id="Layer_2" data-name="Layer 2"><path class="cls-4" d="M360.91,119.9v16H295.13V43.65h19V119.9Z"/><path class="cls-4" d="M430.44,59.85H398.83V136.1H379.67V59.85h-31.6v-16h82.17v16Z"/><path class="cls-4" d="M480.61,137.28c-21.73,0-40.1-11.45-40.1-40.29V43.65h19V94.81c0,19.56,10.07,26.08,21.53,26.08s21.53-6.32,21.53-25.88V43.65h19V96.4C521.5,124.84,502.34,137.28,480.61,137.28Z"/><path class="cls-4" d="M622,43.65V135.9H598.93l-34-56.1c-2.77-4.34-5.93-10.27-8.69-15.6.39,5.73.59,12.44.59,18l.59,53.73h-18V43.65H563l33.39,55.51c2.76,4.54,6.12,10.86,9.28,16.4-.59-6.13-1-13.24-1-18l-.59-53.93Z"/><path class="cls-4" d="M641.21,43.65h19V135.9h-19Z"/><path class="cls-4" d="M761.9,89.48c0,29.43-18.18,46.62-44.45,46.62H679.53V43.65h38.71C744.51,43.65,761.9,60.25,761.9,89.48Zm-19.76.59c0-20.14-9.28-30.22-24.69-30.22H698.69V120.1h18.76C732.66,119.9,742.14,110,742.14,90.07Z"/><path class="cls-4" d="M844.07,120.1v16H776.71V43.65h66.57v16H795.67V81h43.07V96.6H795.67v23.5Z"/><path class="cls-4" d="M941.45,43.65V135.9H918.34L884.56,79.8c-2.76-4.34-5.92-10.27-8.69-15.6.4,5.73.59,12.44.59,18l.6,53.73h-18V43.65h23.31l33.38,55.51c2.77,4.54,6.13,10.86,9.29,16.4-.6-6.13-1-13.24-1-18l-.59-53.93Z"/><path class="cls-4" d="M1034.69,59.85h-31.61V136.1H983.92V59.85h-31.6v-16h82.17v16Z"/><path class="cls-4" d="M650.69,0s-.2,16.4-16.4,16.4c16.2,0,16.4,16.39,16.4,16.39s.19-16.39,16.39-16.39C650.88,16.4,650.69,0,650.69,0Z"/><path class="cls-4" d="M249.9,43.65H226L189.65,136.1H209.4l8.1-22.32,5.33-14.62,8.5-23.31c2.17-5.92,4.34-12.84,5.92-17.78,1.58,4.94,4,11.86,5.93,17.78l8.49,23.31,5.14,14.62,8.1,22.32h20.54Z"/></g></g></g></g></g></svg>