<svg xmlns="http://www.w3.org/2000/svg" viewBox="0 0 1034.67 274.5"><defs><style>.cls-1{fill:#f36b24;}.cls-2{isolation:isolate;font-size:61.16px;font-family:Arial-ItalicMT, Arial;font-style:italic;}.cls-2,.cls-4{fill:#0e1d3f;}.cls-3{fill:#f36b25;}</style></defs><g id="katman_2" data-name="katman 2"><g id="katman_1-2" data-name="katman 1"><g id="Layer_5" data-name="Layer 5"><path class="cls-1" d="M103.11,19.36l43.46,87.5s16.79-30.42,17.18-47.4c.4-15.81-8.49-42.47-43.85-44C115.16,15.21,107.85,16.59,103.11,19.36Z"/><path class="cls-1" d="M106.86,84.54,85.33,41.09,83,36.94A46.11,46.11,0,0,0,45,17a51.33,51.33,0,0,0-7.71.59A43.17,43.17,0,0,0,14.62,28.64a44.18,44.18,0,0,0-10.27,52l.59,1.19,45.43,91.45L68,136.1l-7.31-14.62h1.78A44.48,44.48,0,0,0,85.73,115l29,58.27,17.58-37.33ZM60.25,88.69c-19.16,0-28.45-22.12-27.66-28.44C33.38,52.54,36.74,48,44.44,48s10.28,4.35,10.28,4.35l17,34C71.7,86.52,67.75,88.69,60.25,88.69Z"/></g><g id="Layer_4" data-name="Layer 4"><text class="cls-2" transform="translate(354.65 210.25)">Geleceğe gülümse</text></g><g id="Layer_3" data-name="Layer 3"><path class="cls-3" d="M478.22,228.74c59.66,30.82,130,41.09,195.36,25.88,25.88-5.73,50.37-15,75.06-25.88l.4.79a238,238,0,0,1-92.64,40.69c-50,9.88-103.31,2.57-148.55-20.94a180.54,180.54,0,0,1-30.22-19.75l.59-.79Z"/></g><g id="Layer_2" data-name="Layer 2"><path class="cls-4" d="M360.89,119.9v16H295.11V43.65h19V119.9Z"/><path class="cls-4" d="M430.42,59.85H398.81V136.1H379.65V59.85h-31.6v-16h82.17v16Z"/><path class="cls-4" d="M480.59,137.28c-21.73,0-40.1-11.45-40.1-40.29V43.65h19V94.81c0,19.56,10.07,26.08,21.53,26.08s21.53-6.32,21.53-25.88V43.65h19V96.4C521.48,124.84,502.32,137.28,480.59,137.28Z"/><path class="cls-4" d="M622,43.65V135.9H598.91l-34-56.1c-2.77-4.34-5.93-10.27-8.69-15.6.39,5.73.59,12.44.59,18l.59,53.73h-18V43.65H563l33.39,55.51c2.76,4.54,6.12,10.86,9.28,16.4-.59-6.13-1-13.24-1-18l-.59-53.93Z"/><path class="cls-4" d="M641.19,43.65h19V135.9h-19Z"/><path class="cls-4" d="M761.88,89.48c0,29.43-18.18,46.62-44.45,46.62H679.51V43.65h38.71C744.49,43.65,761.88,60.25,761.88,89.48Zm-19.76.59c0-20.14-9.28-30.22-24.69-30.22H698.67V120.1h18.76C732.64,119.9,742.12,110,742.12,90.07Z"/><path class="cls-4" d="M844.05,120.1v16H776.69V43.65h66.57v16H795.65V81h43.07v15.6H795.65V120.1Z"/><path class="cls-4" d="M941.43,43.65V135.9H918.32L884.54,79.8c-2.76-4.34-5.92-10.27-8.69-15.6.4,5.73.59,12.44.59,18l.6,53.73h-18V43.65h23.31l33.38,55.51c2.77,4.54,6.13,10.86,9.29,16.4-.6-6.13-1-13.24-1-18l-.59-53.93Z"/><path class="cls-4" d="M1034.67,59.85h-31.61V136.1H983.9V59.85H952.3v-16h82.17v16Z"/><path class="cls-4" d="M650.67,0s-.2,16.4-16.4,16.4c16.2,0,16.4,16.39,16.4,16.39s.19-16.39,16.39-16.39C650.86,16.4,650.67,0,650.67,0Z"/><path class="cls-4" d="M249.88,43.65H226L189.63,136.1h19.75l8.1-22.32,5.33-14.62,8.5-23.31c2.17-5.92,4.34-12.84,5.92-17.78,1.58,4.94,4,11.86,5.93,17.78l8.49,23.31,5.14,14.62,8.1,22.32h20.54Z"/></g></g></g></svg>